<svg width="682" height="682" viewBox="0 0 682 682" fill="none" xmlns="http://www.w3.org/2000/svg">
<path fill-rule="evenodd" clip-rule="evenodd" d="M670.27 396.721C668.479 407.279 666.184 417.746 663.393 428.085C664.773 422.99 666.026 417.89 667.155 412.787C668.317 407.485 669.357 402.129 670.27 396.721Z" fill="white"/>
<path d="M544.632 340.957C544.632 338.968 544.603 336.985 544.546 335.01M622.028 160.54C622.198 160.806 622.369 161.072 622.539 161.338M512.358 230.947C511.098 228.985 509.81 227.051 508.495 225.146M480.019 37.3114C480.307 37.443 480.594 37.5751 480.881 37.7075M425.767 155.807C423.731 154.875 421.686 153.979 419.635 153.119M312.308 139.355C310.69 139.586 309.08 139.834 307.477 140.101M311.604 542.456C313.346 542.71 315.086 542.941 316.824 543.15M424.798 526.548C429.48 524.434 434.043 522.164 438.484 519.749M511.781 451.863C512.694 450.456 513.588 449.042 514.463 447.621M544.546 335.01C544.378 329.291 543.97 323.581 543.324 317.897M544.546 335.01C544.037 317.246 541.252 300.052 536.474 283.709M543.324 317.897C543.109 316.022 542.868 314.144 542.601 312.264C542.335 310.399 542.045 308.543 541.731 306.697M543.324 317.897C542.641 311.889 541.691 305.909 540.477 299.976M541.731 306.697C540.727 300.826 539.468 294.999 537.957 289.237M541.731 306.697C541.224 303.719 540.655 300.766 540.024 297.84M537.957 289.237C537.51 287.538 537.04 285.841 536.547 284.144C535.211 279.544 533.726 275.028 532.101 270.598M537.957 289.237C538.711 292.102 539.399 294.971 540.024 297.84M532.101 270.598C530.809 267.102 529.415 263.621 527.918 260.16M532.101 270.598C537.205 284.418 540.71 298.487 542.7 312.587M527.918 260.16C533.27 272.552 537.391 285.46 540.208 298.684M527.918 260.16C527.485 259.158 527.042 258.158 526.591 257.159L526.64 257.137M540.208 298.684C539.296 294.37 538.244 290.081 537.051 285.825M540.208 298.684C540.299 299.114 540.389 299.545 540.477 299.976M537.051 285.825C538.157 289.777 539.149 293.783 540.024 297.84M537.051 285.825C535.585 280.586 533.919 275.442 532.063 270.401M540.024 297.84C540.179 298.552 540.33 299.264 540.477 299.976M540.477 299.976C543.371 313.986 544.739 328.008 544.684 341.856M508.495 225.146C505.361 220.615 502.045 216.212 498.555 211.948C497.44 210.588 496.305 209.238 495.149 207.898C494.372 206.999 493.589 206.108 492.801 205.225M508.495 225.146C498.555 210.751 487.061 198.017 474.387 187.024M492.801 205.225C487.877 199.722 482.659 194.489 477.171 189.55M492.801 205.225C483.878 195.239 474.183 186.336 463.884 178.529M477.171 189.55C476.408 188.864 475.639 188.183 474.863 187.506C473.584 186.391 472.296 185.295 470.998 184.217C466.084 180.144 460.981 176.302 455.708 172.705M477.171 189.55C491.352 202.297 503.332 216.6 513.079 231.975M455.708 172.705C454.453 171.85 453.186 171.007 451.906 170.176L451.936 170.131M455.708 172.705C470.785 182.974 484.06 194.932 495.445 208.161M419.635 153.119C414.265 150.872 408.8 148.854 403.257 147.072C401.792 146.603 400.318 146.148 398.835 145.709C398.037 145.472 397.238 145.241 396.439 145.015M419.635 153.119C407.977 148.23 396.103 144.509 384.149 141.906M396.439 145.015C388.777 142.85 380.994 141.133 373.132 139.874M396.439 145.015C383.045 141.221 369.575 138.863 356.197 137.849M373.132 139.874C372.222 139.729 371.31 139.59 370.396 139.456C368.683 139.207 366.973 138.979 365.265 138.773C359.473 138.08 353.653 137.634 347.822 137.437M373.132 139.874C392.195 142.915 410.228 148.52 426.93 156.284M347.822 137.437C345.557 137.362 343.283 137.325 340.999 137.325V137.27M347.822 137.437C360.245 137.846 372.386 139.368 384.149 141.906M307.477 140.101C301.196 141.151 294.967 142.493 288.812 144.123M307.477 140.101C304.278 140.633 301.109 141.238 297.97 141.913M288.812 144.123C287.27 144.533 285.729 144.961 284.188 145.409C279.607 146.74 275.109 148.218 270.697 149.836M288.812 144.123C291.862 143.313 294.915 142.577 297.97 141.913M270.697 149.836C267.396 151.053 264.11 152.362 260.841 153.764M270.697 149.836C256.521 155.034 243.235 161.679 230.959 169.553M270.697 149.836C284.451 144.76 298.453 141.267 312.486 139.276M260.841 153.764C273.057 148.537 285.77 144.504 298.79 141.735M260.841 153.764C259.626 154.285 258.413 154.818 257.202 155.365C255.444 156.159 253.703 156.975 251.978 157.812C246.733 160.363 241.598 163.138 236.59 166.127M298.79 141.735C294.67 142.604 290.574 143.602 286.508 144.727M298.79 141.735C299.194 141.649 299.599 141.565 300.004 141.482C299.326 141.622 298.648 141.766 297.97 141.913M286.508 144.727C290.28 143.684 294.102 142.745 297.97 141.913M286.508 144.727C272.396 148.631 258.643 154.073 245.522 161.032M286.508 144.727C276.178 147.581 266.217 151.211 256.681 155.543M236.59 166.127C234.711 167.25 232.844 168.408 230.989 169.599L230.959 169.553M236.59 166.127C251.771 157.049 267.691 150.174 283.966 145.42M190.65 203.619C189.606 204.762 188.573 205.92 187.55 207.093C184.399 210.705 181.398 214.397 178.547 218.161M178.547 218.161C176.751 220.542 174.999 222.972 173.293 225.452C172.179 227.069 171.088 228.701 170.021 230.35C165.628 237.148 161.641 244.2 158.083 251.468C157.321 253.028 156.576 254.601 155.849 256.189L155.801 256.167L68.8287 216.348C77.8437 196.657 88.7261 178.413 101.17 161.727L147.357 195.191C154.002 186.346 161.19 178.047 168.852 170.319L105.345 104.326M178.547 218.161C178.868 217.735 179.191 217.31 179.516 216.887C188.111 205.674 197.69 195.579 208.049 186.645L122.179 88.6768M316.824 543.15C320.178 543.553 323.524 543.871 326.86 544.107M316.824 543.15C323.594 543.957 330.402 544.427 337.219 544.556M326.86 544.107C330.29 544.342 333.744 544.492 337.219 544.556M326.86 544.107C332.697 544.509 338.544 544.661 344.386 544.562M326.86 544.107C336.343 544.777 345.742 544.778 355.005 544.149M337.219 544.556C338.476 544.578 339.736 544.59 340.999 544.59C342.13 544.59 343.259 544.581 344.386 544.562M344.386 544.562C347.912 544.505 351.417 544.358 354.898 544.123M344.386 544.562C351.088 544.449 357.781 544.006 364.44 543.237M354.898 544.123C358.07 543.903 361.251 543.608 364.44 543.237M354.898 544.123C340.007 545.157 325.329 544.545 311.058 542.43M354.898 544.123C364.617 543.468 374.15 542.131 383.448 540.159M364.44 543.237C366.188 543.033 367.939 542.807 369.692 542.557C371.376 542.318 373.052 542.058 374.721 541.779C380.577 540.794 386.388 539.555 392.136 538.065M392.136 538.065C394.029 537.573 395.921 537.052 397.812 536.503L397.827 536.556M392.136 538.065C379.761 541.282 367.341 543.287 355.005 544.149M438.484 519.749C441.531 518.084 444.551 516.333 447.542 514.495M438.484 519.749C437.95 520.041 437.415 520.33 436.879 520.617M438.484 519.749C451.277 512.792 463.056 504.62 473.743 495.446M447.542 514.495C440.029 519.104 432.223 523.225 424.178 526.83C428.479 524.907 432.716 522.835 436.879 520.617M447.542 514.495C448.702 513.782 449.858 513.056 451.01 512.317C452.133 511.596 453.246 510.865 454.35 510.126M447.542 514.495C455.585 509.561 463.293 504.067 470.601 498.049M436.879 520.617C442.879 517.409 448.71 513.908 454.35 510.126M436.879 520.617C454.071 511.458 470.017 499.81 484.114 485.894M454.35 510.126C459.773 506.49 465.02 502.597 470.071 498.46M454.35 510.126C457.151 508.251 459.89 506.319 462.568 504.33M470.071 498.46C471.41 497.362 472.739 496.243 474.058 495.105C477.717 491.947 481.236 488.686 484.615 485.332M470.071 498.46C474.626 494.73 479.021 490.801 483.244 486.686M470.071 498.46C467.603 500.484 465.101 502.441 462.568 504.33M484.615 485.332C486.756 483.198 488.86 481.007 490.923 478.759M484.615 485.332C484.159 485.786 483.702 486.237 483.244 486.686M490.923 478.759C482.815 487.576 473.939 495.676 464.401 502.953M490.923 478.759C492.112 477.465 493.288 476.151 494.45 474.819L494.49 474.854M464.401 502.953C466.507 501.352 468.574 499.717 470.601 498.049M464.401 502.953C463.793 503.415 463.182 503.874 462.568 504.33M464.401 502.953C452.164 512.289 438.839 520.272 424.648 526.674M470.601 498.049C471.868 497.005 473.124 495.946 474.367 494.871M470.601 498.049C471.595 497.231 472.58 496.405 473.555 495.571M470.601 498.049C471.593 497.232 472.578 496.407 473.555 495.571M474.367 494.871C474.965 494.351 475.561 493.828 476.154 493.3M474.367 494.871C474.209 495.008 474.051 495.145 473.893 495.281M474.367 494.871C481.608 488.612 488.322 481.919 494.49 474.854M476.154 493.3C475.294 494.064 474.428 494.821 473.555 495.571M476.154 493.3C478.558 491.161 480.922 488.957 483.244 486.686M476.154 493.3C475.405 493.966 474.652 494.627 473.893 495.281M473.555 495.571C473.668 495.475 473.78 495.378 473.893 495.281M473.555 495.571C466.131 501.948 458.225 507.812 449.885 513.095M473.555 495.571C466.02 502.047 458.106 507.89 449.885 513.095M462.568 504.33C450.562 513.283 437.841 520.725 424.648 526.674M514.463 447.621C517.836 442.132 520.948 436.487 523.789 430.705C524.595 429.061 525.382 427.401 526.149 425.726C526.9 424.087 527.627 422.443 528.33 420.794M514.463 447.621C521.363 436.411 527.049 424.779 531.551 412.885M528.33 420.794C530.702 415.224 532.827 409.551 534.697 403.793M528.33 420.794C535.371 404.296 540.065 387.356 542.552 370.359M534.697 403.793C535.233 402.137 535.75 400.469 536.247 398.791C537.628 394.13 538.833 389.46 539.869 384.786M534.697 403.793C535.188 402.28 535.661 400.761 536.117 399.237M534.697 403.793C529.056 421.208 521.271 437.363 511.722 452.05M539.869 384.786C540.601 381.447 541.253 378.073 541.824 374.665M539.869 384.786C539.728 385.428 539.584 386.069 539.437 386.709M541.824 374.665C540.429 382.963 538.523 391.171 536.117 399.237M541.824 374.665C542.064 373.233 542.289 371.795 542.5 370.352L542.552 370.359M536.117 399.237C537.355 395.1 538.463 390.921 539.437 386.709M539.437 386.709C537.373 395.705 534.729 404.442 531.551 412.885M270.531 14.5185L288.321 104.362C277.699 106.726 267.166 109.827 256.796 113.68L236.007 60.5681C216.522 67.8864 197.508 77.3605 179.284 89.06L230.959 169.553M270.531 14.5185C265.586 15.586 260.665 16.7651 255.772 18.055C253.123 18.7556 250.475 19.49 247.829 20.2587C245.521 20.9294 243.225 21.6227 240.942 22.3385C230.498 25.6219 220.22 29.4143 210.147 33.7009C207.95 34.6374 205.758 35.5992 203.572 36.5865C200.758 37.857 197.97 39.1616 195.209 40.4996C186.309 44.8215 177.602 49.535 169.118 54.6251M270.531 14.5185L270.514 14.4308C235.585 21.9652 201.331 35.2639 169.118 54.6251M169.118 54.6251C166.256 56.3451 163.411 58.113 160.582 59.9289C157.927 61.6331 155.305 63.3686 152.715 65.1346M152.715 65.1346C144.691 70.6151 136.908 76.4417 129.388 82.5969C127.17 84.4154 124.969 86.2671 122.785 88.1521C122.583 88.3268 122.381 88.5017 122.179 88.6768M152.715 65.1346C141.965 72.4649 131.773 80.3205 122.151 88.6449L122.179 88.6768M230.959 169.553C235.714 166.497 240.573 163.657 245.522 161.032M105.345 104.326L105.282 104.261C79.6456 129.783 57.7826 159.905 41.0538 194.118M105.345 104.326C101.666 107.989 98.0726 111.738 94.5671 115.569C92.8076 117.494 91.0656 119.445 89.3419 121.421C87.3664 123.685 85.427 125.969 83.5235 128.271C77.2634 135.854 71.3385 143.709 65.7675 151.811C64.1254 154.203 62.5094 156.623 60.92 159.07C59.2568 161.631 57.6332 164.207 56.0491 166.795C50.631 175.666 45.6267 184.784 41.0538 194.118M41.0538 194.118C39.7908 196.701 38.557 199.308 37.3531 201.937C36.2715 204.3 35.2197 206.669 34.1976 209.043M34.1976 209.043C30.1876 218.376 26.6025 227.888 23.4542 237.546C22.5331 240.379 21.6466 243.233 20.7954 246.107C20.7194 246.363 20.6438 246.62 20.5685 246.876M34.1976 209.043C28.8283 221.515 24.279 234.143 20.5266 246.864L20.5685 246.876M20.5685 246.876L145.755 282.927C140.696 299.973 137.809 317.953 137.413 336.547C137.382 338.013 137.367 339.483 137.367 340.957C137.367 342.279 137.379 343.597 137.404 344.913C137.534 351.508 137.983 358.095 138.749 364.647C138.944 366.312 139.161 367.979 139.399 369.648L139.346 369.656L44.6462 383.134C41.5948 361.694 40.8958 340.461 42.3533 319.698L99.2988 322.906C100.112 311.873 101.677 301.005 103.95 290.363L14.8559 269.138M14.8559 269.138L14.7679 269.117C8.02408 299.721 5.52743 331.698 7.84463 364.295M14.8559 269.138C13.7834 274.009 12.8194 278.903 11.9647 283.817C11.4519 286.779 10.9771 289.755 10.5406 292.747C10.1242 295.602 9.7452 298.453 9.40326 301.3C8.14444 311.852 7.38671 322.458 7.13291 333.082C7.07233 335.7 7.04187 338.325 7.04187 340.957C7.04187 343.351 7.06705 345.738 7.11715 348.119M7.11715 348.119C7.23128 353.544 7.47476 358.937 7.84463 364.295M7.11715 348.119C7.34591 358.642 8.06901 369.149 9.28389 379.603M7.84463 364.295C8.20636 369.384 8.68539 374.487 9.28389 379.603M9.28389 379.603C9.61137 382.402 9.97462 385.205 10.374 388.011C10.7258 390.484 11.1039 392.946 11.5079 395.397M11.5079 395.397C13.1857 405.534 15.3277 415.589 17.9268 425.529C18.679 428.397 19.4709 431.263 20.303 434.127C20.3775 434.383 20.4522 434.64 20.5273 434.896M11.5079 395.397C13.7326 408.898 16.7431 422.081 20.4855 434.908L20.5273 434.896M20.5273 434.896L145.348 397.602C147.382 404.641 149.786 411.523 152.538 418.226M27.7465 456.717L114.187 426.445C118.025 436.628 122.578 446.619 127.855 456.343L78.2011 484.408C88.1919 502.668 100.251 520.157 114.401 536.551L186.811 474.049L186.851 474.014C185.724 472.708 184.616 471.391 183.527 470.065C172.225 456.294 163.025 441.458 155.898 425.956M27.7465 456.717L27.6621 456.747C40.2097 490.717 58.5213 523.167 82.7038 552.645M27.7465 456.717C29.3324 461.008 31.006 465.267 32.766 469.491C34.0077 472.464 35.2957 475.429 36.6302 478.385C37.7529 480.871 38.9024 483.337 40.078 485.783C45.0722 496.152 50.5968 506.259 56.6284 516.062C57.7237 517.839 58.8378 519.61 59.9705 521.375C61.1118 523.153 62.2671 524.916 63.4363 526.665C69.4378 535.629 75.8684 544.3 82.7038 552.645M155.898 425.956C154.722 423.397 153.601 420.82 152.538 418.226M155.898 425.956C154.726 423.408 153.606 420.83 152.538 418.226M82.7038 552.645C84.502 554.837 86.3327 557.012 88.1959 559.171C90.4852 561.823 92.807 564.43 95.1604 566.993M95.1604 566.993C101.234 573.595 107.569 579.951 114.151 586.046C116.549 588.263 118.987 590.453 121.465 592.614C121.666 592.79 121.867 592.965 122.068 593.14M95.1604 566.993C103.721 576.314 112.699 585.042 122.04 593.172L122.068 593.14M122.068 593.14L206.959 494.323C213.342 499.908 220.029 505.048 226.971 509.733M139.933 607.602L196.32 535.429C205.05 541.925 214.28 547.873 223.973 553.205L197.351 603.646C215.623 613.615 235.219 621.818 255.983 627.969L283.15 536.256C274.524 533.705 266.137 530.597 258.03 526.976C257.508 526.744 256.988 526.509 256.469 526.273C255.428 525.797 254.39 525.313 253.355 524.819C245.359 521.012 237.571 516.662 230.048 511.77M139.933 607.602L139.878 607.672C168.546 629.297 201.176 646.602 237.091 658.339M139.933 607.602C143.889 610.584 147.911 613.48 151.995 616.285C154.341 617.894 156.714 619.478 159.114 621.037C161.451 622.554 163.8 624.039 166.16 625.491C175.893 631.467 185.926 636.945 196.217 641.9C198.125 642.817 200.046 643.719 201.979 644.604C203.871 645.47 205.767 646.317 207.667 647.145C217.294 651.334 227.114 655.07 237.091 658.339M230.048 511.77C229.015 511.1 227.989 510.421 226.971 509.733M230.048 511.77C229.017 511.101 227.991 510.422 226.971 509.733M237.091 658.339C240.088 659.319 243.108 660.259 246.151 661.161C249.764 662.231 253.381 663.237 257.001 664.18M257.001 664.18C265.428 666.368 273.938 668.228 282.51 669.755C285.917 670.359 289.344 670.913 292.791 671.416C292.863 671.426 292.935 671.437 293.007 671.447M257.001 664.18C268.988 667.303 281.002 669.731 293.001 671.489L293.007 671.447M293.007 671.447L311.058 542.43M311.058 542.43C310.86 542.401 310.662 542.371 310.464 542.341M311.058 542.43L311.062 542.401C320.924 543.88 330.769 544.614 340.532 544.641M311.058 542.43C318.155 543.488 325.264 544.162 332.354 544.46M315.853 673.965L324.312 582.769C335.168 583.52 346.148 583.538 357.186 582.789L362.033 639.618C382.795 638.136 403.717 634.452 424.513 628.41L397.827 536.556M315.853 673.965L315.844 674.055C351.673 676.766 388.504 673.695 425.089 664.156M315.853 673.965C321.803 674.415 327.766 674.705 333.733 674.837C336.149 674.889 338.571 674.915 340.999 674.915C343.211 674.915 345.417 674.893 347.619 674.85C358.23 674.637 368.826 673.921 379.369 672.704C382.26 672.369 385.156 671.995 388.055 671.582C390.806 671.19 393.545 670.766 396.27 670.31C405.962 668.681 415.578 666.628 425.089 664.156M397.827 536.556C389.192 539.068 380.458 540.984 371.682 542.317M397.827 536.556C396.328 536.99 394.821 537.408 393.308 537.809M371.682 542.317C371.144 542.399 370.606 542.479 370.069 542.557M371.682 542.317C375.608 541.716 379.532 540.998 383.448 540.159M371.682 542.317C379.007 541.203 386.225 539.695 393.308 537.809M370.069 542.557C377.948 541.424 385.705 539.833 393.308 537.809M370.069 542.557C361.095 543.855 352.107 544.539 343.16 544.629M370.069 542.557C368.853 542.731 367.635 542.895 366.413 543.048M393.308 537.809C390.052 538.672 386.765 539.456 383.448 540.159M343.16 544.629C342.283 544.639 341.407 544.643 340.532 544.641M343.16 544.629C347.097 544.585 351.046 544.426 355.005 544.149M340.532 544.641C349.24 544.665 357.883 544.125 366.413 543.048M340.532 544.641C337.799 544.636 335.072 544.575 332.354 544.46M340.532 544.641C337.809 544.636 335.083 544.575 332.354 544.46M366.413 543.048C362.636 543.521 358.832 543.889 355.005 544.149M425.089 664.156C428.119 663.366 431.146 662.532 434.171 661.653C437.497 660.687 440.796 659.674 444.067 658.614M444.067 658.614C452.848 655.763 461.508 652.55 470.023 648.986M444.067 658.614C456.147 654.702 467.859 650.16 479.175 645.035L479.16 645M470.023 648.986C472.833 647.807 475.635 646.588 478.428 645.326C478.671 645.216 478.915 645.106 479.157 644.996M470.023 648.986C473.088 647.703 476.133 646.374 479.16 645M479.157 644.996L424.648 526.674M479.157 644.996L479.16 645M424.648 526.674L424.636 526.648C433.454 522.69 441.881 518.152 449.885 513.095M424.648 526.674C430.793 523.909 436.763 520.854 442.542 517.528M499.743 634.773L457.594 553.46C467.135 548.227 476.385 542.311 485.268 535.717L520.049 580.921C536.719 568.457 552.335 554.054 566.571 537.735L494.49 474.854M499.743 634.773L499.749 634.785L499.751 634.787M499.743 634.773C504.908 631.982 509.999 629.056 515.012 625.998M494.49 474.854C491.157 478.678 487.695 482.359 484.114 485.894M484.114 485.894C480.782 489.186 477.324 492.372 473.743 495.446M473.743 495.446C469.713 498.912 465.564 502.203 461.31 505.316C457.605 508.028 453.796 510.623 449.885 513.095M449.885 513.095C447.463 514.628 445.015 516.106 442.542 517.528M449.885 513.095C447.474 514.622 445.025 516.099 442.542 517.528M498.184 635.63C498.707 635.351 499.229 635.07 499.751 634.787M499.751 634.787L499.785 634.853C531.67 617.632 561.235 594.912 587.024 566.79M499.751 634.787C504.885 632.006 509.974 629.077 515.012 625.998M587.024 566.79C580.357 574.05 573.372 581.014 566.092 587.66C563.834 589.718 561.542 591.752 559.214 593.76C557.062 595.618 554.894 597.443 552.708 599.236C544.599 605.88 536.181 612.141 527.486 617.998C525.482 619.345 523.459 620.675 521.416 621.986C519.291 623.351 517.156 624.688 515.012 625.998M587.024 566.79C588.923 564.72 590.801 562.62 592.658 560.492C594.554 558.318 596.418 556.126 598.248 553.917M598.248 553.917C604.838 545.952 611.058 537.685 616.886 529.146C618.304 527.066 619.702 524.965 621.08 522.843C621.226 522.619 621.371 522.395 621.515 522.171M598.248 553.917C606.725 543.687 614.492 533.092 621.551 522.194L621.515 522.171M621.515 522.171L511.722 452.05M511.722 452.05L511.699 452.035C517.178 443.637 521.967 434.942 526.07 426.025M511.722 452.05C514.951 447.094 517.944 442.023 520.702 436.852C522.593 433.309 524.384 429.699 526.07 426.025M633.597 501.936L554.12 456.42C559.305 446.852 563.875 436.869 567.77 426.514L621.493 445.67C628.754 426.163 634.078 405.597 637.204 384.168L542.552 370.359M633.597 501.936L633.675 501.981C648.761 474.572 660.172 444.653 667.155 412.787M633.597 501.936C636.11 497.369 638.516 492.743 640.814 488.063C642.123 485.393 643.4 482.698 644.645 479.977C645.833 477.383 646.985 474.782 648.1 472.174C652.03 462.971 655.547 453.596 658.639 444.079C659.527 441.34 660.383 438.582 661.205 435.805C661.967 433.233 662.696 430.66 663.393 428.085M542.552 370.359C541.92 374.704 541.149 379.011 540.243 383.275C539.086 388.727 537.699 394.152 536.08 399.536M536.08 399.536C533.716 407.421 530.886 415.105 527.624 422.557M536.08 399.536C535.781 400.532 535.473 401.526 535.158 402.519M527.624 422.557C527.116 423.719 526.598 424.875 526.07 426.025M527.624 422.557C529.011 419.378 530.321 416.154 531.551 412.885M526.07 426.025C529.608 418.338 532.636 410.486 535.158 402.519M535.158 402.519C534.054 405.994 532.852 409.451 531.551 412.885M663.393 428.085C664.773 422.99 666.026 417.89 667.155 412.787M663.393 428.085C666.184 417.746 668.479 407.279 670.27 396.721M667.155 412.787C668.317 407.485 669.357 402.129 670.27 396.721M670.27 396.721C670.694 394.213 671.09 391.695 671.459 389.165C671.872 386.338 672.247 383.515 672.587 380.695M672.587 380.695C673.778 370.727 674.523 360.709 674.818 350.675C674.907 347.568 674.953 344.45 674.956 341.322M672.587 380.695C674.177 367.475 674.969 354.334 675 341.321L674.956 341.322M674.956 341.322L544.684 341.856M674.956 341.322C674.956 341.2 674.956 341.079 674.956 340.957L674.956 341.322ZM544.684 341.856L544.656 341.856C544.712 331.96 544.045 322.184 542.7 312.587M544.684 341.856C544.71 336.368 544.513 330.906 544.099 325.482C543.772 321.185 543.307 316.885 542.7 312.587M674.23 318.932L582.752 323.406C581.965 312.552 580.437 301.679 578.14 290.858L633.719 278.051C629.326 257.705 622.731 237.511 613.819 217.774L526.64 257.137M674.23 318.932L674.321 318.927C671.897 282.175 663.31 245.238 648.018 209.547M674.23 318.932C673.876 313.583 673.395 308.243 672.786 302.916C672.44 299.915 672.053 296.91 671.625 293.901C671.208 290.972 670.754 288.057 670.264 285.156C668.611 275.416 666.529 265.752 664.024 256.195C663.287 253.39 662.511 250.586 661.697 247.785C661.039 245.518 660.358 243.263 659.656 241.021C656.303 230.343 652.419 219.837 648.018 209.547M526.64 257.137C530.261 265.148 533.331 273.333 535.854 281.638M526.64 257.137C527.097 258.15 527.545 259.169 527.987 260.192M535.854 281.638C536.065 282.328 536.271 283.018 536.474 283.709M535.854 281.638C534.705 277.871 533.442 274.123 532.063 270.401M535.854 281.638C533.625 274.306 530.995 267.148 527.987 260.192M536.474 283.709C534.118 275.652 531.278 267.802 527.987 260.192M536.474 283.709C537.501 287.211 538.43 290.729 539.262 294.26C540.683 300.284 541.832 306.398 542.7 312.587M527.987 260.192C529.432 263.545 530.792 266.949 532.063 270.401M648.018 209.547C647.156 207.537 646.274 205.53 645.37 203.528C644.071 200.651 642.736 197.802 641.367 194.98M641.367 194.98C637.218 186.449 632.709 178.097 627.854 169.948C626.131 167.062 624.359 164.191 622.539 161.338M641.367 194.98C635.686 183.276 629.404 172.047 622.576 161.314L622.539 161.338M622.539 161.338L513.079 231.975M513.079 231.975L513.055 231.991C507.717 223.537 501.823 215.585 495.445 208.161M513.079 231.975C510.045 227.18 506.824 222.536 503.43 218.052C500.881 214.684 498.219 211.385 495.445 208.161M609.518 142.398L534.956 195.583C528.43 186.875 521.27 178.551 513.49 170.685L553.342 129.882C538.654 115.135 522.195 101.704 504.032 89.9088L451.936 170.131M609.518 142.398L609.592 142.345C587.919 113.027 561.066 86.8187 529.341 65.1732M609.518 142.398C606.248 137.976 602.869 133.634 599.385 129.377C597.559 127.148 595.698 124.936 593.804 122.742C592.261 120.954 590.703 119.187 589.131 117.44C581.588 109.072 573.628 101.088 565.284 93.5198C563.718 92.1009 562.135 90.6936 560.535 89.2982C558.384 87.4217 556.216 85.5777 554.031 83.7661C546.091 77.1932 537.851 70.9885 529.341 65.1732M451.936 170.131C459.524 175.054 466.721 180.448 473.499 186.26M451.936 170.131C453.064 170.864 454.186 171.611 455.302 172.368M473.499 186.26C473.796 186.514 474.092 186.769 474.387 187.024M473.499 186.26C470.386 183.596 467.18 181.017 463.884 178.529M473.499 186.26C467.668 181.261 461.59 176.627 455.302 172.368M474.387 187.024C468.285 181.732 461.91 176.844 455.302 172.368M474.387 187.024C477.065 189.343 479.674 191.724 482.212 194.166C486.82 198.596 491.238 203.264 495.445 208.161M455.302 172.368C458.206 174.34 461.068 176.393 463.884 178.529M529.341 65.1732C527.211 63.7201 525.06 62.2876 522.886 60.8761C520.287 59.1885 517.674 57.5416 515.047 55.9353M515.047 55.9353C506.889 50.9569 498.521 46.3283 489.969 42.0633C486.972 40.5715 483.942 39.1192 480.881 37.7075M515.047 55.9353C503.897 49.1187 492.495 43.0334 480.9 37.667L480.881 37.7075M480.881 37.7075L426.93 156.284M426.93 156.284L426.919 156.309C418.196 152.237 409.292 148.834 400.271 146.086M426.93 156.284C420.083 153.093 413.102 150.309 406.024 147.927M340.999 137.27V41.6175C362.655 41.6175 383.774 43.9172 404.125 48.2858L392.925 104.211C403.734 106.571 414.272 109.652 424.488 113.401L458.055 28.1855M340.999 137.27C341.189 137.27 341.379 137.27 341.57 137.271M341.57 137.271C350.345 137.292 359.051 137.884 367.64 139.022M341.57 137.271C343.454 137.277 345.342 137.31 347.232 137.369M367.64 139.022C367.804 139.043 367.968 139.065 368.132 139.087M367.64 139.022C363.852 138.524 360.037 138.132 356.197 137.849M367.64 139.022C360.835 138.122 354.025 137.574 347.232 137.369M368.132 139.087C361.163 138.148 354.188 137.579 347.232 137.369M368.132 139.087C377.728 140.372 387.148 142.335 396.332 144.933M368.132 139.087C369.461 139.266 370.791 139.459 372.119 139.665M368.132 139.087C369.464 139.267 370.793 139.459 372.119 139.665M347.232 137.369C350.215 137.462 353.204 137.622 356.197 137.849M396.332 144.933C397.651 145.304 398.964 145.688 400.271 146.086M396.332 144.933C392.32 143.802 388.258 142.792 384.149 141.906M400.271 146.086C390.986 143.257 381.578 141.121 372.119 139.665M400.271 146.086C402.201 146.672 404.119 147.286 406.024 147.927M400.271 146.086C402.195 146.67 404.113 147.285 406.024 147.927M372.119 139.665C376.135 140.288 380.147 141.034 384.149 141.906M372.119 139.665C376.159 140.292 380.171 141.039 384.149 141.906M458.055 28.1855L458.088 28.1024C424.69 15.5975 388.756 8.28712 351.268 7.15488M458.055 28.1855C453.26 26.3908 448.424 24.7057 443.551 23.1317C441 22.3099 438.433 21.5162 435.849 20.7509C433.909 20.1763 431.968 19.6202 430.027 19.0824C418.586 15.9222 406.985 13.3701 395.274 11.4375C393.26 11.1064 391.238 10.7927 389.209 10.4967C386.387 10.0851 383.568 9.71 380.753 9.37113C370.962 8.20015 361.124 7.46064 351.268 7.15488M351.268 7.15488C347.858 7.05187 344.435 7 340.999 7C337.788 7 334.588 7.04531 331.399 7.13532C321.827 7.41293 312.27 8.09966 302.757 9.19359C299.823 9.53321 296.886 9.9121 293.945 10.3307C293.68 10.3683 293.416 10.4062 293.152 10.4444L312.486 139.276M312.486 139.276C312.613 139.258 312.739 139.241 312.866 139.223M312.486 139.276L312.491 139.305C302.744 140.67 293.219 142.725 283.966 145.42M312.486 139.276C306.125 140.173 299.842 141.368 293.655 142.848C290.413 143.623 287.183 144.48 283.966 145.42M245.522 161.032C249.172 159.095 252.893 157.263 256.681 155.543M256.681 155.543C262.057 153.095 267.513 150.896 273.031 148.944C276.631 147.67 280.277 146.494 283.966 145.42" stroke="white" stroke-width="13"/>
<path fill-rule="evenodd" clip-rule="evenodd" d="M352.008 267.935C358.901 268.294 365.766 268.996 372.596 270.04C374.482 265.507 377.273 259.964 379.715 255.64C379.9 255.322 380.26 255.157 380.62 255.212C400.375 258.615 419.28 264.574 436.92 272.674C437.073 272.74 437.203 272.85 437.29 272.992C473.149 326.564 482.972 378.818 478.153 430.425C478.131 430.678 477.989 430.919 477.793 431.073C454.135 448.447 431.218 458.994 408.726 465.986L362.009 479.497V440.34L386.867 399.002C400.495 399.002 411.724 386.49 411.724 371.124C411.724 355.759 400.713 343.247 386.867 343.247C372.912 343.247 361.791 355.868 362.009 371.124L363.086 412.033L340.913 432.364L320.894 412.033L319.817 371.124C320.035 355.868 308.914 343.247 294.96 343.247C281.114 343.247 270.102 355.759 270.102 371.124C270.102 386.49 281.331 399.002 294.96 399.002L319.817 440.34V479.497L273.1 465.986C250.609 458.994 227.692 448.447 204.033 431.073C203.837 430.919 203.695 430.678 203.674 430.425C198.855 378.818 208.678 326.564 244.536 272.992C244.623 272.85 244.754 272.74 244.906 272.674C262.547 264.574 281.451 258.615 301.206 255.212C301.566 255.157 301.926 255.322 302.111 255.64C304.554 259.964 307.344 265.507 309.231 270.04C316.127 268.986 323.06 268.281 330.02 267.925L341.016 300.18L352.008 267.935Z" fill="white"/>
<path d="M341.016 287.16L305.507 183H376.525L341.016 287.16Z" fill="#FFBB0E"/>
</svg>
